<?xml version="1.0" encoding="utf-8"?>
<!-- Generator: Adobe Illustrator 21.1.0, SVG Export Plug-In . SVG Version: 6.00 Build 0)  -->
<svg version="1.1"
	 id="svg2" inkscape:version="0.48.4 r9939" sodipodi:docname="laptop.svg.2016_01_08_20_01_26.0.svg" xmlns:cc="http://creativecommons.org/ns#" xmlns:dc="http://purl.org/dc/elements/1.1/" xmlns:inkscape="http://www.inkscape.org/namespaces/inkscape" xmlns:rdf="http://www.w3.org/1999/02/22-rdf-syntax-ns#" xmlns:sodipodi="http://sodipodi.sourceforge.net/DTD/sodipodi-0.dtd" xmlns:svg="http://www.w3.org/2000/svg"
	 xmlns="http://www.w3.org/2000/svg" xmlns:xlink="http://www.w3.org/1999/xlink" x="0px" y="0px" viewBox="0 0 2193 1802.1"
	 style="enable-background:new 0 0 2193 1802.1;" xml:space="preserve">
<style type="text/css">
	.st0{fill:#007735;}
	.st1{fill:#FDFDFD;}
	.st2{opacity:0.8601;}
	.st3{fill:#1A1A1A;stroke:#000000;stroke-width:8.2;}
	.st4{opacity:0.8189;}
	.st5{fill:#181818;}
	.st6{fill:#9E9FB1;}
	.st7{opacity:0.6008;fill:#24231F;stroke:#000000;enable-background:new    ;}
	.st8{fill:none;stroke:#000000;}
	.st9{fill:#F4F3FB;}
	.st10{fill:#01B252;}
	.st11{opacity:0.4033;fill:#CCCCCC;enable-background:new    ;}
	.st12{opacity:0.1399;fill:#F2F2F2;enable-background:new    ;}
	.st13{opacity:0.1687;fill:#F2F2F2;enable-background:new    ;}
	.st14{fill:#0D0D0B;stroke:#000000;}
	.st15{fill:#282423;}
	.st16{opacity:0.7695;fill:#333333;stroke:#000000;enable-background:new    ;}
	.st17{fill:#048C4E;}
</style>
<path class="st0" d="M1302.4,523.8l835.2,491.2L778.7,1799.6l-731.6-413c-61.1-34.5-61-122.5,0.1-156.9L1302.4,523.8z"/>
<sodipodi:namedview  bordercolor="#666666" borderopacity="1.0" fit-margin-bottom="0" fit-margin-left="0" fit-margin-right="0" fit-margin-top="0" id="base" inkscape:current-layer="layer1" inkscape:cx="2726.2685" inkscape:cy="2503.4627" inkscape:document-units="px" inkscape:guide-bbox="true" inkscape:object-nodes="true" inkscape:object-paths="true" inkscape:pageopacity="0.0" inkscape:pageshadow="2" inkscape:showpageshadow="false" inkscape:snap-nodes="true" inkscape:snap-smooth-nodes="false" inkscape:window-height="876" inkscape:window-maximized="1" inkscape:window-width="1387" inkscape:window-x="53" inkscape:window-y="24" inkscape:zoom="0.0625" pagecolor="#ffffff" showborder="false" showgrid="true" showguides="true">
	</sodipodi:namedview>
<g id="layer1" transform="translate(2135.3174,2419.8543)" inkscape:groupmode="layer" inkscape:label="Layer 1">
	<g id="g3967" transform="translate(-496,-816)">
		<path id="path3930_2_" inkscape:connector-curvature="0" class="st0" d="M-1269.2-41.9"/>
		<path id="path3920" inkscape:connector-curvature="0" sodipodi:nodetypes="cccccccc" class="st1" d="M-1214.8-167.4L-807.1,68
			L551.8-716.6v-627.7l-407.7-235.4l-1223,706.1l-135.9,392.3V-167.4z"/>
		<g id="g3960" transform="translate(408.74935,-801.53319)" class="st2">
			<path id="path3950" inkscape:connector-curvature="0" sodipodi:nodetypes="czcczcc" class="st3" d="M-238.2,368.6
				c52.9,30.6,128.3-38.8,158.8-91.8s52.9-152.9,0-183.5l-80.4-50.8c-52.9-30.6-128.3,38.8-158.8,91.8s-52.9,152.9,0,183.5
				L-238.2,368.6z"/>
			<path id="path3954" inkscape:connector-curvature="0" sodipodi:nodetypes="czzzc" class="st1" d="M-201.6,210.9
				c-20.3,35.3-35.2,101.9,0,122.2c35.2,20.4,85.2-25.8,105.5-61.1s35.2-101.9,0-122.2S-181.3,175.6-201.6,210.9"/>
		</g>
		<g id="g3970" transform="translate(-327.25065,-385.53319)" class="st4">
			<path id="path3972" inkscape:connector-curvature="0" sodipodi:nodetypes="czcczcc" class="st5" d="M-154,321.1
				c52.9,30.6,128.3-38.8,158.8-91.8s52.9-152.9,0-183.5L-75.6-5c-52.9-30.6-128.3,38.8-158.8,91.8s-52.9,152.9,0,183.5L-154,321.1z
				"/>
			<path id="path3974" inkscape:connector-curvature="0" sodipodi:nodetypes="czzzc" class="st1" d="M-117.4,163.3
				c-20.3,35.3-35.2,101.9,0,122.2c35.1,20.5,85.1-25.8,105.4-61s35.2-101.9,0-122.2S-97.2,128.1-117.4,163.3"/>
		</g>
		<path id="path3916" inkscape:connector-curvature="0" class="st6" d="M551.8-1344.3L-671.3-638.2l-135.9,392.3V68l266.1-153.6
			c-0.4-47.8,17.7-103.2,39-140.1c37.4-64.7,129.6-149.4,194.4-112c30.7,17.7,40.7,54.4,38.7,95l384.3-221.9
			c0.4-47.1,18.1-100.9,39-136.9c37.4-64.7,129.6-149.4,194.4-112c29.9,17.2,40.1,52.4,38.9,91.8l164.3-94.9L551.8-1344.3
			L551.8-1344.3z"/>
		<path id="path3924" inkscape:connector-curvature="0" class="st7" d="M-1078.7-873l-135.6,391.5l406.9,234.9L-671.8-638
			L-1078.7-873"/>
		<path id="path3926" inkscape:connector-curvature="0" class="st8" d="M-1078.9-873.5l1223-706.1l407.7,235.4l-1223,706.1
			L-1078.9-873.5"/>
		<path id="path3980" inkscape:connector-curvature="0" class="st9" d="M-1214.8-481.3v313.8L-807.1,68v-313.8L-1214.8-481.3z"/>
		<path id="path3976" inkscape:connector-curvature="0" class="st10" d="M-1187.6-308.6v125.5l54.4,31.4v-125.5L-1187.6-308.6"/>
		<path id="path3978" inkscape:connector-curvature="0" class="st10" d="M-888.7-136v125.5l54.4,31.4v-125.5L-888.7-136"/>
		<path id="path3982" inkscape:connector-curvature="0" class="st11" d="M-1114.7-446.4L-992-800.5l49.1,28.3l-73.6,382.4
			L-1114.7-446.4z"/>
		<path id="path3984" inkscape:connector-curvature="0" sodipodi:nodetypes="ccccc" class="st11" d="M-1016.6-389.8l98.1-368.2
			l24.5,14.2l-73.6,382.4L-1016.6-389.8z"/>
		<path id="path3986" inkscape:connector-curvature="0" sodipodi:nodetypes="ccccc" class="st12" d="M-1133.3-434.2v313.8l81.5,47.1
			l-27.2-329.5L-1133.3-434.2z"/>
		<path id="path3988" inkscape:connector-curvature="0" sodipodi:nodetypes="ccccc" class="st13" d="M-1024.6-371.4v313.8l54.4,31.4
			l-27.2-329.5L-1024.6-371.4z"/>
		<path id="path3189" inkscape:connector-curvature="0" class="st14" d="M-644.1-622.5L-780-261.6l1304.6-753.2v-282.5L-644.1-622.5
			z"/>
		<path id="path3961" inkscape:connector-curvature="0" class="st15" d="M-671.3-324.3l135.9-78.5v-282.5l-108.7,62.8l-27.2,78.5
			L-671.3-324.3L-671.3-324.3z"/>
		<path id="path3965" inkscape:connector-curvature="0" class="st16" d="M-1214.8-418.5l407.7,235.4l54.4-31.4v62.8l-54.4,31.4
			l-407.7-235.4V-418.5z"/>
	</g>
</g>
<path class="st8" d="M2163.9,306.6"/>
<polygon class="st17" points="953.4,1007.9 2191.1,290.9 2191.1,259.6 968.1,965.7 "/>
</svg>
