<?xml version="1.0" encoding="utf-8"?>
<!-- Generator: Adobe Illustrator 21.1.0, SVG Export Plug-In . SVG Version: 6.00 Build 0)  -->
<svg version="1.1" id="Capa_1" xmlns="http://www.w3.org/2000/svg" xmlns:xlink="http://www.w3.org/1999/xlink" x="0px" y="0px"
	 viewBox="0 0 612 612" style="enable-background:new 0 0 612 612;" xml:space="preserve">
<style type="text/css">
	.st0{fill:#FFFFFF;}
</style>
<circle class="st0" cx="306" cy="306" r="306"/>
<g id="_x31_0_41_">
	<g>
		<path d="M415.3,196.7c-7.5-7.5-19.7-7.5-27.3,0l-82.2,82.2l-81-81c-7.5-7.5-19.6-7.5-27,0c-7.5,7.5-7.5,19.6,0,27l81,81
			l-81.6,81.6c-7.5,7.5-7.5,19.7,0,27.3s19.7,7.5,27.3,0l81.6-81.6l81,81c7.5,7.5,19.6,7.5,27,0c7.5-7.5,7.5-19.6,0-27l-81-81
			l82.2-82.2C422.9,216.4,422.9,204.2,415.3,196.7z"/>
	</g>
</g>
</svg>
