<?xml version="1.0" encoding="utf-8"?>
<!-- Generator: Adobe Illustrator 21.1.0, SVG Export Plug-In . SVG Version: 6.00 Build 0)  -->
<svg version="1.1" id="Capa_1" xmlns="http://www.w3.org/2000/svg" xmlns:xlink="http://www.w3.org/1999/xlink" x="0px" y="0px"
	 viewBox="0 0 200 200" style="enable-background:new 0 0 200 200;" xml:space="preserve">
<style type="text/css">
	.st0{fill:#9c8e67;}
	.st1{fill:#FFFFFF;}
</style>
<g>
	<path class="st0" d="M100,181.5c-44.9,0-81.5-36.6-81.5-81.5S55.1,18.5,100,18.5s81.5,36.6,81.5,81.5S144.9,181.5,100,181.5z"/>
	<path class="st1" d="M100,36c35.3,0,64,28.7,64,64s-28.7,64-64,64s-64-28.7-64-64S64.7,36,100,36 M100,1C45.3,1,1,45.3,1,100
		s44.3,99,99,99s99-44.3,99-99S154.7,1,100,1L100,1z"/>
</g>
</svg>
