<?xml version="1.0" encoding="utf-8"?>
<!-- Generator: Adobe Illustrator 21.1.0, SVG Export Plug-In . SVG Version: 6.00 Build 0)  -->
<svg version="1.1" id="Capa_1" xmlns="http://www.w3.org/2000/svg" xmlns:xlink="http://www.w3.org/1999/xlink" x="0px" y="0px"
	 viewBox="0 0 200 200" style="enable-background:new 0 0 200 200;" xml:space="preserve">
<style type="text/css">
	.st0{fill:#FFFFFF;}
	.st1{fill:#d63c3c;}
</style>
<g>
	<path class="st0" d="M100,165c-35.8,0-65-29.2-65-65c0-35.8,29.2-65,65-65c35.8,0,65,29.2,65,65C165,135.8,135.8,165,100,165z"/>
	<path class="st1" d="M100,67c18.2,0,33,14.8,33,33s-14.8,33-33,33s-33-14.8-33-33S81.8,67,100,67 M100,3C46.4,3,3,46.4,3,100
		s43.4,97,97,97s97-43.4,97-97S153.6,3,100,3L100,3z"/>
</g>
</svg>
