<?xml version="1.0" encoding="utf-8"?>
<!-- Generator: Adobe Illustrator 21.1.0, SVG Export Plug-In . SVG Version: 6.00 Build 0)  -->
<svg version="1.1" id="Capa_1" xmlns="http://www.w3.org/2000/svg" xmlns:xlink="http://www.w3.org/1999/xlink" x="0px" y="0px"
	 viewBox="0 0 225 234" style="enable-background:new 0 0 225 234;" xml:space="preserve">
<style type="text/css">
	.st0{fill:#f1f2f6;}
</style>
<g>
	<path class="st0" d="M89.7,58.5c6.7-0.1,14.9-0.2,25.2-0.2C151.2,58.3,225,61,225,61s-1.4-30-2-39c-0.8-11.1-1.1-13.3-3.9-15.2
		c-1.2-0.9-3.7-2.1-10.2-2.6C146.3,0,96.4-0.5,47.4,2.2C26.2,3.3,17.3,5,9.7,11.7c-5.5,4.9-8.3,13-8.8,26.4s-1.1,38.5-1.1,38.5
		l225.1,40h0.1V84.2L81.4,59.8C83.1,59,85.2,58.6,89.7,58.5z M70,33.1v-5.7c0-2.4,2.5-4.4,5.5-4.4H151c3,0,5.5,2,5.5,4.4v5.7
		c0,2.4-2.5,4.4-5.5,4.4H75.5C72.4,37.6,70,35.6,70,33.1z"/>
	<path class="st0" d="M-0.3,117.5L143.3,142c-1.7,0.8-3.8,1.2-8.3,1.3c-6.7,0.1-14.9,0.2-25.2,0.2c-36.3,0-110.2-2.7-110.2-2.7
		s1.5,30,1.9,38.9c0.8,11.1,1.1,13.3,3.9,15.2c1.2,0.9,3.7,2.1,10.2,2.6c5.4,0.4,10.8,0.7,16,1l-0.1,0l0.2,28.9
		c0,4.1,3.4,7.5,7.5,7.5h22.3c4.2,0,7.5-3.4,7.5-7.5v-27l-0.1,0c31,1.1,59.2,1.2,86.6,0.2l0,26.9c0,4.1,3.4,7.5,7.5,7.5h22.3
		c4.2,0,7.5-3.4,7.5-7.5v-29c10.5-1.3,16.5-3.5,21.8-8.2c5.5-4.9,8.3-13,8.8-26.4c0.5-13.4,1.1-38.5,1.1-38.5l-225.1-40V117.5z"/>
</g>
</svg>
